# Blender v2.78 (sub 0) OBJ File: 'Bogen.blend'
# www.blender.org
mtllib Bogen.mtl
o Torus.002
v -0.171294 5.364555 -4.307164
v 0.028706 5.320052 -4.112178
v -0.171294 5.275547 -3.917193
v -0.371294 5.320052 -4.112178
v -0.171294 6.200027 -4.035703
v 0.028706 6.121421 -3.851797
v -0.171294 6.042816 -3.667891
v -0.371294 6.121421 -3.851797
v -0.171294 6.973599 -3.619425
v 0.028706 6.863420 -3.452510
v -0.171294 6.753240 -3.285596
v -0.371294 6.863420 -3.452510
v -0.171294 7.660411 -3.071711
v 0.028706 7.522199 -2.927152
v -0.171294 7.383986 -2.782593
v -0.371294 7.522199 -2.927152
v -0.171294 8.238387 -2.410163
v 0.028706 8.076584 -2.292606
v -0.171294 7.914780 -2.175049
v -0.371294 8.076584 -2.292606
v -0.171294 8.688951 -1.656048
v 0.028706 8.508757 -1.569271
v -0.171294 8.328563 -1.482494
v -0.371294 8.508757 -1.569271
v -0.171294 8.997622 -0.833598
v 0.028706 8.804829 -0.780390
v -0.171294 8.612036 -0.727183
v -0.371295 8.804829 -0.780390
v -0.171294 9.154477 0.030751
v 0.028706 8.955282 0.048679
v -0.171294 8.756086 0.066607
v -0.371295 8.955282 0.048679
v -0.171294 9.154478 0.909213
v 0.028706 8.955283 0.891286
v -0.171294 8.756088 0.873358
v -0.371295 8.955283 0.891286
v -0.171294 8.997622 1.773562
v 0.028706 8.804829 1.720355
v -0.171294 8.612037 1.667147
v -0.371295 8.804829 1.720355
v -0.171294 8.688951 2.596012
v 0.028706 8.508758 2.509236
v -0.171294 8.328564 2.422459
v -0.371294 8.508758 2.509236
v -0.171294 8.238387 3.350130
v 0.028706 8.076584 3.232573
v -0.171294 7.914780 3.115016
v -0.371294 8.076584 3.232573
v -0.171294 7.660411 4.011678
v 0.028706 7.522199 3.867119
v -0.171294 7.383986 3.722560
v -0.371294 7.522199 3.867119
v -0.171294 6.973599 4.559392
v 0.028706 6.863420 4.392477
v -0.171294 6.753240 4.225563
v -0.371294 6.863420 4.392477
v -0.171294 6.200027 4.975670
v 0.028706 6.121421 4.791764
v -0.171294 6.042816 4.607858
v -0.371294 6.121421 4.791764
v -0.171294 5.364555 5.247130
v 0.028706 5.320052 5.052145
v -0.171294 5.275547 4.857160
v -0.371294 5.320052 5.052145
v 0.028706 4.845490 -4.176462
v -0.171294 4.845490 -4.377476
v -0.371294 4.845490 -4.176461
v -0.171294 4.845490 -3.975448
v -0.171294 4.845490 4.915415
v 0.028706 4.845490 5.116428
v -0.171294 4.845490 5.317443
v -0.371294 4.845490 5.116428
vn 0.7057 0.2189 -0.6739
vn 0.7057 -0.2189 0.6739
vn -0.7057 -0.2189 0.6739
vn -0.7057 0.2189 -0.6739
vn 0.7057 0.3358 -0.6239
vn 0.7057 -0.3358 0.6239
vn -0.7057 -0.3358 0.6239
vn -0.7057 0.3358 -0.6239
vn 0.7057 0.4418 -0.5540
vn 0.7057 -0.4418 0.5540
vn -0.7057 -0.4418 0.5540
vn -0.7057 0.4418 -0.5540
vn 0.7057 0.5336 -0.4662
vn 0.7057 -0.5336 0.4662
vn -0.7057 -0.5336 0.4662
vn -0.7057 0.5336 -0.4662
vn 0.7057 0.6082 -0.3634
vn 0.7057 -0.6082 0.3634
vn -0.7057 -0.6082 0.3634
vn -0.7057 0.6082 -0.3634
vn 0.7057 0.6634 -0.2490
vn 0.7057 -0.6634 0.2490
vn -0.7057 -0.6634 0.2490
vn -0.7057 0.6634 -0.2490
vn 0.7057 0.6971 -0.1265
vn 0.7057 -0.6971 0.1265
vn -0.7057 -0.6971 0.1265
vn -0.7057 0.6971 -0.1265
vn 0.7057 0.7085 0.0000
vn 0.7057 -0.7085 0.0000
vn -0.7057 -0.7085 0.0000
vn -0.7057 0.7085 0.0000
vn 0.7057 0.6971 0.1265
vn 0.7057 -0.6971 -0.1265
vn -0.7057 -0.6971 -0.1265
vn -0.7057 0.6971 0.1265
vn 0.7057 0.6634 0.2490
vn 0.7057 -0.6634 -0.2490
vn -0.7057 -0.6634 -0.2490
vn -0.7057 0.6634 0.2490
vn 0.7057 0.6082 0.3634
vn 0.7057 -0.6082 -0.3634
vn -0.7057 -0.6082 -0.3634
vn -0.7057 0.6082 0.3634
vn 0.7057 0.5336 0.4662
vn 0.7057 -0.5336 -0.4662
vn -0.7057 -0.5336 -0.4662
vn -0.7057 0.5336 0.4662
vn 0.7057 0.4418 0.5540
vn 0.7057 -0.4418 -0.5540
vn -0.7057 -0.4418 -0.5540
vn -0.7057 0.4418 0.5540
vn 0.7057 0.3358 0.6239
vn 0.7057 -0.3358 -0.6239
vn -0.7057 -0.3358 -0.6239
vn -0.7057 0.3358 0.6239
vn 0.7057 0.2189 0.6739
vn 0.7057 -0.2189 -0.6739
vn -0.7057 -0.2189 -0.6739
vn -0.7057 0.2189 0.6739
vn 0.7057 0.0951 0.7021
vn 0.7057 -0.0951 -0.7021
vn -0.7057 -0.0951 -0.7021
vn -0.7057 0.0951 0.7021
vn 0.7057 0.0951 -0.7021
vn 0.0000 -1.0000 0.0000
vn -0.7057 0.0951 -0.7021
vn -0.7057 -0.0951 0.7021
vn 0.7057 -0.0951 0.7021
usemtl None
s off
f 1//1 5//1 6//1 2//1
f 2//2 6//2 7//2 3//2
f 3//3 7//3 8//3 4//3
f 4//4 8//4 5//4 1//4
f 5//5 9//5 10//5 6//5
f 6//6 10//6 11//6 7//6
f 7//7 11//7 12//7 8//7
f 8//8 12//8 9//8 5//8
f 9//9 13//9 14//9 10//9
f 10//10 14//10 15//10 11//10
f 11//11 15//11 16//11 12//11
f 12//12 16//12 13//12 9//12
f 13//13 17//13 18//13 14//13
f 14//14 18//14 19//14 15//14
f 15//15 19//15 20//15 16//15
f 16//16 20//16 17//16 13//16
f 17//17 21//17 22//17 18//17
f 18//18 22//18 23//18 19//18
f 19//19 23//19 24//19 20//19
f 20//20 24//20 21//20 17//20
f 21//21 25//21 26//21 22//21
f 22//22 26//22 27//22 23//22
f 23//23 27//23 28//23 24//23
f 24//24 28//24 25//24 21//24
f 25//25 29//25 30//25 26//25
f 26//26 30//26 31//26 27//26
f 27//27 31//27 32//27 28//27
f 28//28 32//28 29//28 25//28
f 29//29 33//29 34//29 30//29
f 30//30 34//30 35//30 31//30
f 31//31 35//31 36//31 32//31
f 32//32 36//32 33//32 29//32
f 33//33 37//33 38//33 34//33
f 34//34 38//34 39//34 35//34
f 35//35 39//35 40//35 36//35
f 36//36 40//36 37//36 33//36
f 37//37 41//37 42//37 38//37
f 38//38 42//38 43//38 39//38
f 39//39 43//39 44//39 40//39
f 40//40 44//40 41//40 37//40
f 41//41 45//41 46//41 42//41
f 42//42 46//42 47//42 43//42
f 43//43 47//43 48//43 44//43
f 44//44 48//44 45//44 41//44
f 45//45 49//45 50//45 46//45
f 46//46 50//46 51//46 47//46
f 47//47 51//47 52//47 48//47
f 48//48 52//48 49//48 45//48
f 49//49 53//49 54//49 50//49
f 50//50 54//50 55//50 51//50
f 51//51 55//51 56//51 52//51
f 52//52 56//52 53//52 49//52
f 53//53 57//53 58//53 54//53
f 54//54 58//54 59//54 55//54
f 55//55 59//55 60//55 56//55
f 56//56 60//56 57//56 53//56
f 57//57 61//57 62//57 58//57
f 58//58 62//58 63//58 59//58
f 59//59 63//59 64//59 60//59
f 60//60 64//60 61//60 57//60
f 61//61 71//61 70//61 62//61
f 62//62 70//62 69//62 63//62
f 63//63 69//63 72//63 64//63
f 64//64 72//64 71//64 61//64
f 65//65 66//65 1//65 2//65
f 66//66 65//66 68//66 67//66
f 69//66 70//66 71//66 72//66
f 66//67 67//67 4//67 1//67
f 67//68 68//68 3//68 4//68
f 68//69 65//69 2//69 3//69
