# Blender v2.78 (sub 0) OBJ File: 'hausKL.blend'
# www.blender.org
mtllib hausKL.mtl
o Cube.001
v -0.677144 0.132476 -0.972726
v -0.677144 0.732477 -0.972726
v -0.277143 0.132476 -0.972726
v -0.277143 0.732477 -0.972726
v 0.258909 1.255093 -0.957948
v 0.258909 1.855094 -0.957948
v 0.658909 1.255093 -0.957948
v 0.658909 1.855094 -0.957948
v -0.659106 1.255093 -0.953787
v -0.659106 1.855094 -0.953787
v -0.259105 1.255093 -0.953787
v -0.259105 1.855094 -0.953787
v 0.954329 1.255093 -0.335931
v 0.954329 1.855094 -0.335931
v 0.954329 1.255093 -0.735932
v 0.954329 1.855094 -0.735932
v 0.954329 0.618901 0.730233
v 0.954329 1.218902 0.730233
v 0.954329 0.618901 0.330232
v 0.954329 1.218902 0.330232
v 0.258909 1.323452 0.968139
v 0.258909 1.923452 0.968139
v 0.658909 1.323452 0.968139
v 0.658909 1.923452 0.968139
v -0.818407 0.504773 0.968139
v -0.818407 1.104774 0.968139
v -0.418407 0.504773 0.968139
v -0.418407 1.104774 0.968139
v -2.270600 0.504773 0.515907
v -2.270600 1.104774 0.515907
v -1.317279 0.504773 0.515907
v -1.317279 1.104774 0.515907
v -3.337045 0.504773 0.507670
v -3.337045 1.104774 0.507670
v -2.937044 0.504773 0.507670
v -2.937044 1.104774 0.507670
v -2.270600 0.504773 -0.377671
v -2.270600 1.104774 -0.377671
v -1.317279 0.504773 -0.377671
v -1.317279 1.104774 -0.377671
v -3.337045 0.504773 -0.385908
v -3.337045 1.104774 -0.385908
v -2.937044 0.504773 -0.385908
v -2.937044 1.104774 -0.385908
v -3.641524 0.110487 0.569076
v -3.641524 1.651154 0.569076
v -3.641524 0.110487 -0.430925
v -3.641524 1.651154 -0.430925
v -0.641521 0.110487 0.569076
v -0.641521 1.651154 0.569076
v -0.641521 0.110487 -0.430925
v -0.641521 1.651154 -0.430925
v -1.414214 2.103098 -1.414214
v 1.414214 2.103098 -1.414213
v 1.414214 2.103098 1.414214
v 0.000000 4.103098 0.000000
v -1.414214 2.103098 1.414214
v 1.000000 0.100016 -1.000000
v 1.000000 0.100016 1.000000
v -1.000000 0.100016 1.000000
v -1.000000 0.100016 -1.000000
v 1.000000 2.100016 -0.999999
v 0.999999 2.100016 1.000001
v -1.000000 2.100016 1.000000
v -1.000000 2.100016 -1.000000
v 1.000000 1.855094 -0.335931
v 1.000000 1.581069 -0.335931
v 1.000000 1.255093 -0.335931
v 1.000000 0.618901 0.330232
v 1.000000 1.218902 0.330232
v 1.000000 1.218902 0.730233
v 1.000000 0.618901 0.730233
v 0.658909 1.923452 1.000000
v 0.658909 1.514622 1.000000
v 0.258909 1.923452 1.000000
v 0.658909 1.323452 1.000000
v 0.258909 1.323452 1.000000
v -0.418407 1.104774 1.000000
v -0.418407 0.695941 1.000000
v -0.418407 0.504773 1.000000
v -0.818407 0.504773 1.000000
v -0.818407 1.104774 1.000000
v -2.270600 1.104774 0.569076
v -1.317279 1.104774 0.569076
v -1.317279 0.504773 0.569076
v -2.270600 0.504773 0.569076
v -2.937044 0.504773 0.569076
v -3.337045 0.504773 0.569076
v -2.937044 1.104774 0.569076
v -3.337045 1.104774 0.569076
v -1.317279 0.504773 -0.430925
v -2.270600 0.504773 -0.430925
v -2.270600 1.104774 -0.430925
v -1.317279 1.104774 -0.430925
v -2.937044 0.504773 -0.430925
v -3.337045 1.104774 -0.430925
v -2.937044 1.104774 -0.430925
v -3.337045 0.504773 -0.430925
v 1.000000 1.855094 -0.735932
v 1.000000 1.255093 -0.735932
v -0.659106 1.255093 -1.000000
v -0.659106 1.855094 -1.000000
v -0.259105 1.577817 -1.000000
v -0.259105 1.255093 -1.000000
v -0.259105 1.855094 -1.000000
v 0.658909 1.855094 -1.000000
v 0.658909 1.602782 -1.000000
v 0.258909 1.507406 -1.000000
v 0.258909 1.255093 -1.000000
v 0.258909 1.855094 -1.000000
v 0.658909 1.255093 -1.000000
v -0.277143 0.132476 -1.000000
v -0.277143 0.732477 -1.000000
v -0.677144 0.732477 -1.000000
v -0.677144 0.132476 -1.000000
vn 1.0000 0.0000 0.0000
vn 0.0000 0.0000 -1.0000
vn 0.0000 0.0000 1.0000
vn 0.0000 1.0000 -0.0000
vn 0.0000 -1.0000 0.0000
vn -1.0000 0.0000 0.0000
vn 0.0000 0.5774 -0.8165
vn 0.8165 0.5774 0.0000
vn -0.0000 0.5774 0.8165
vn -0.8165 0.5774 0.0000
usemtl Material
s off
f 1//1 115//1 114//1 2//1
f 3//2 1//2 2//2 4//2
f 5//1 109//1 108//1 110//1 6//1
f 7//2 5//2 6//2 8//2
f 9//1 101//1 102//1 10//1
f 11//2 9//2 10//2 12//2
f 13//1 15//1 16//1 14//1
f 15//3 100//3 99//3 16//3
f 13//4 68//4 100//4 15//4
f 16//5 99//5 66//5 14//5
f 17//1 19//1 20//1 18//1
f 19//3 69//3 70//3 20//3
f 17//4 72//4 69//4 19//4
f 20//5 70//5 71//5 18//5
f 21//3 23//3 24//3 22//3
f 23//6 76//6 74//6 73//6 24//6
f 21//4 77//4 76//4 23//4
f 24//5 73//5 75//5 22//5
f 25//3 27//3 28//3 26//3
f 27//6 80//6 79//6 78//6 28//6
f 25//4 81//4 80//4 27//4
f 28//5 78//5 82//5 26//5
f 29//3 31//3 32//3 30//3
f 31//6 85//6 84//6 32//6
f 29//4 86//4 85//4 31//4
f 32//5 84//5 83//5 30//5
f 33//3 35//3 36//3 34//3
f 35//6 87//6 89//6 36//6
f 33//4 88//4 87//4 35//4
f 36//5 89//5 90//5 34//5
f 37//1 92//1 93//1 38//1
f 39//2 37//2 38//2 40//2
f 41//1 98//1 96//1 42//1
f 43//2 41//2 42//2 44//2
f 45//6 46//6 48//6 47//6
f 47//2 48//2 96//2 98//2 95//2 97//2 93//2 92//2 91//2 94//2 52//2 51//2
f 51//1 52//1 50//1 49//1
f 49//3 50//3 84//3 85//3 86//3 87//3 88//3 45//3
f 47//5 51//5 49//5 45//5
f 52//4 48//4 46//4 50//4
f 53//7 56//7 54//7
f 54//8 56//8 55//8
f 55//9 56//9 57//9
f 57//10 56//10 53//10
f 53//5 54//5 55//5 57//5
f 58//5 59//5 60//5 61//5
f 62//4 65//4 64//4 63//4
f 58//1 62//1 100//1 68//1 67//1 70//1 69//1 72//1 71//1 63//1 59//1
f 59//3 63//3 74//3 76//3 77//3 64//3 60//3 81//3 82//3 78//3 79//3
f 60//6 64//6 65//6 61//6
f 62//2 107//2 106//2 110//2 108//2 103//2 105//2 102//2 101//2 65//2
f 111//6 7//6 8//6 106//6 107//6
f 45//3 88//3 90//3 89//3 87//3 86//3 83//3 84//3 50//3 46//3
f 109//4 5//4 7//4 111//4
f 106//5 8//5 6//5 110//5
f 72//2 17//2 18//2 71//2
f 115//4 1//4 3//4 112//4
f 101//4 9//4 11//4 104//4
f 97//5 44//5 42//5 96//5
f 65//2 101//2 104//2 103//2 108//2 109//2 111//2 107//2 62//2 58//2 112//2 113//2 114//2 115//2 61//2
f 61//2 115//2 112//2 58//2
f 68//2 13//2 14//2 66//2 67//2
f 98//4 41//4 43//4 95//4
f 95//6 43//6 44//6 97//6
f 112//6 3//6 4//6 113//6
f 94//5 40//5 38//5 93//5
f 91//6 39//6 40//6 94//6
f 92//4 37//4 39//4 91//4
f 77//1 21//1 22//1 75//1
f 113//5 4//5 2//5 114//5
f 88//1 33//1 34//1 90//1
f 63//1 71//1 70//1 67//1
f 66//1 99//1 100//1 62//1 63//1 67//1
f 105//5 12//5 10//5 102//5
f 80//3 81//3 60//3 59//3 79//3
f 64//3 77//3 75//3 73//3 74//3 63//3
f 104//6 11//6 12//6 105//6 103//6
f 52//2 94//2 93//2 97//2 96//2 48//2
f 86//1 29//1 30//1 83//1
f 81//1 25//1 26//1 82//1
